<svg width="401" height="273" viewBox="0 0 401 273" fill="none" xmlns="http://www.w3.org/2000/svg">
<rect width="113.312" height="39.122" rx="10" transform="matrix(0 -1 -1 0 401 273)" fill="#6976EB" fill-opacity="0.1"/>
<rect width="168.438" height="39.122" rx="10" transform="matrix(0 -1 -1 0 346.509 273)" fill="#6976EB" fill-opacity="0.1"/>
<rect width="143.5" height="39.122" rx="10" transform="matrix(0 -1 -1 0 285.031 273)" fill="#6976EB" fill-opacity="0.1"/>
<rect width="224.875" height="39.122" rx="10" transform="matrix(0 -1 -1 0 162.077 273)" fill="#6976EB" fill-opacity="0.1"/>
<rect width="192.5" height="39.122" rx="10" transform="matrix(0 -1 -1 0 100.599 273)" fill="#6976EB" fill-opacity="0.1"/>
<rect width="162.312" height="39.122" rx="10" transform="matrix(0 -1 -1 0 39.1221 273)" fill="#6976EB" fill-opacity="0.1"/>
<rect width="273" height="39.122" rx="10" transform="matrix(0 -1 -1 0 223.554 273)" fill="#2B3695" fill-opacity="0.1"/>
</svg>
