<svg width="503" height="338" viewBox="0 0 503 338" fill="none" xmlns="http://www.w3.org/2000/svg">
<g opacity="0.4" filter="url(#filter0_f_700_172)">
<path d="M225.971 144.586C225.971 129.598 238.121 117.448 253.11 117.448H435.694C450.682 117.448 462.832 129.598 462.832 144.586V247.385C462.832 262.374 450.682 274.524 435.694 274.524C431.611 274.524 427.602 274.524 423.659 274.524C418.229 274.524 417.477 298 412.272 298C406.857 298 396.997 274.524 391.774 274.524C345.229 274.524 305.25 274.524 253.122 274.524C238.133 274.524 225.971 262.374 225.971 247.385V144.586Z" fill="url(#paint0_linear_700_172)"/>
<path d="M226.42 144.586C226.42 129.846 238.37 117.897 253.11 117.897H435.694C450.434 117.897 462.383 129.846 462.383 144.586V247.385C462.383 262.126 450.434 274.075 435.694 274.075H435.67H435.646H435.622H435.598H435.574H435.55H435.526H435.502H435.478H435.454H435.431H435.407H435.383H435.359H435.335H435.311H435.287H435.263H435.239H435.215H435.192H435.168H435.144H435.12H435.096H435.072H435.048H435.024H435.001H434.977H434.953H434.929H434.905H434.881H434.857H434.833H434.81H434.786H434.762H434.738H434.714H434.69H434.666H434.643H434.619H434.595H434.571H434.547H434.523H434.5H434.476H434.452H434.428H434.404H434.38H434.357H434.333H434.309H434.285H434.261H434.237H434.214H434.19H434.166H434.142H434.118H434.095H434.071H434.047H434.023H433.999H433.976H433.952H433.928H433.904H433.88H433.857H433.833H433.809H433.785H433.761H433.738H433.714H433.69H433.666H433.642H433.619H433.595H433.571H433.547H433.524H433.5H433.476H433.452H433.428H433.405H433.381H433.357H433.333H433.31H433.286H433.262H433.238H433.215H433.191H433.167H433.143H433.12H433.096H433.072H433.048H433.025H433.001H432.977H432.954H432.93H432.906H432.882H432.859H432.835H432.811H432.787H432.764H432.74H432.716H432.693H432.669H432.645H432.622H432.598H432.574H432.55H432.527H432.503H432.479H432.456H432.432H432.408H432.385H432.361H432.337H432.313H432.29H432.266H432.242H432.219H432.195H432.171H432.148H432.124H432.1H432.077H432.053H432.029H432.006H431.982H431.958H431.935H431.911H431.887H431.864H431.84H431.816H431.793H431.769H431.745H431.722H431.698H431.675H431.651H431.627H431.604H431.58H431.556H431.533H431.509H431.485H431.462H431.438H431.415H431.391H431.367H431.344H431.32H431.296H431.273H431.249H431.226H431.202H431.178H431.155H431.131H431.108H431.084H431.06H431.037H431.013H430.99H430.966H430.942H430.919H430.895H430.872H430.848H430.825H430.801H430.777H430.754H430.73H430.707H430.683H430.659H430.636H430.612H430.589H430.565H430.542H430.518H430.495H430.471H430.447H430.424H430.4H430.377H430.353H430.33H430.306H430.283H430.259H430.235H430.212H430.188H430.165H430.141H430.118H430.094H430.071H430.047H430.024H430H429.977H429.953H429.93H429.906H429.883H429.859H429.835H429.812H429.788H429.765H429.741H429.718H429.694H429.671H429.647H429.624H429.6H429.577H429.553H429.53H429.506H429.483H429.459H429.436H429.412H429.389H429.365H429.342H429.319H429.295H429.272H429.248H429.225H429.201H429.178H429.154H429.131H429.107H429.084H429.06H429.037H429.013H428.99H428.967H428.943H428.92H428.896H428.873H428.849H428.826H428.802H428.779H428.755H428.732H428.709H428.685H428.662H428.638H428.615H428.591H428.568H428.545H428.521H428.498H428.474H428.451H428.427H428.404H428.381H428.357H428.334H428.31H428.287H428.264H428.24H428.217H428.193H428.17H428.147H428.123H428.1H428.076H428.053H428.03H428.006H427.983H427.959H427.936H427.913H427.889H427.866H427.842H427.819H427.796H427.772H427.749H427.726H427.702H427.679H427.656H427.632H427.609H427.585H427.562H427.539H427.515H427.492H427.469H427.445H427.422H427.399H427.375H427.352H427.329H427.305H427.282H427.258H427.235H427.212H427.188H427.165H427.142H427.118H427.095H427.072H427.048H427.025H427.002H426.979H426.955H426.932H426.909H426.885H426.862H426.839H426.815H426.792H426.769H426.745H426.722H426.699H426.675H426.652H426.629H426.606H426.582H426.559H426.536H426.512H426.489H426.466H426.443H426.419H426.396H426.373H426.349H426.326H426.303H426.28H426.256H426.233H426.21H426.186H426.163H426.14H426.117H426.093H426.07H426.047H426.024H426H425.977H425.954H425.931H425.907H425.884H425.861H425.838H425.814H425.791H425.768H425.745H425.721H425.698H425.675H425.652H425.628H425.605H425.582H425.559H425.536H425.512H425.489H425.466H425.443H425.419H425.396H425.373H425.35H425.327H425.303H425.28H425.257H425.234H425.211H425.187H425.164H425.141H425.118H425.095H425.071H425.048H425.025H425.002H424.979H424.955H424.932H424.909H424.886H424.863H424.839H424.816H424.793H424.77H424.747H424.724H424.7H424.677H424.654H424.631H424.608H424.585H424.561H424.538H424.515H424.492H424.469H424.446H424.422H424.399H424.376H424.353H424.33H424.307H424.284H424.26H424.237H424.214H424.191H424.168H424.145H424.122H424.098H424.075H424.052H424.029H424.006H423.983H423.96H423.937H423.913H423.89H423.867H423.844H423.821H423.798H423.775H423.752H423.729H423.705H423.682H423.659C422.8 274.075 422.081 274.544 421.483 275.24C420.888 275.935 420.371 276.902 419.906 278.02C418.976 280.256 418.202 283.224 417.446 286.15L417.403 286.316C416.657 289.204 415.924 292.037 415.067 294.164C414.63 295.248 414.172 296.116 413.686 296.705C413.201 297.294 412.734 297.551 412.272 297.551C411.75 297.551 411.104 297.262 410.332 296.641C409.571 296.029 408.745 295.14 407.869 294.051C406.119 291.871 404.229 288.958 402.328 286.018L402.218 285.848C400.361 282.976 398.497 280.092 396.771 277.913C395.891 276.802 395.033 275.857 394.218 275.186C393.414 274.524 392.586 274.075 391.774 274.075H391.501H391.229H390.957H390.684H390.412H390.14H389.869H389.597H389.326H389.054H388.783H388.512H388.241H387.97H387.7H387.429H387.159H386.889H386.618H386.349H386.079H385.809H385.539H385.27H385.001H384.732H384.463H384.194H383.925H383.656H383.388H383.119H382.851H382.583H382.315H382.047H381.779H381.511H381.244H380.976H380.709H380.442H380.175H379.908H379.641H379.374H379.108H378.841H378.575H378.308H378.042H377.776H377.51H377.244H376.978H376.713H376.447H376.182H375.916H375.651H375.386H375.121H374.856H374.591H374.326H374.061H373.797H373.532H373.268H373.004H372.74H372.475H372.211H371.947H371.684H371.42H371.156H370.893H370.629H370.366H370.102H369.839H369.576H369.313H369.05H368.787H368.524H368.261H367.998H367.736H367.473H367.211H366.948H366.686H366.424H366.162H365.9H365.637H365.375H365.114H364.852H364.59H364.328H364.067H363.805H363.543H363.282H363.021H362.759H362.498H362.237H361.976H361.714H361.453H361.192H360.931H360.671H360.41H360.149H359.888H359.628H359.367H359.106H358.846H358.585H358.325H358.064H357.804H357.544H357.283H357.023H356.763H356.503H356.243H355.983H355.723H355.463H355.203H354.943H354.683H354.423H354.163H353.903H353.643H353.384H353.124H352.864H352.605H352.345H352.085H351.826H351.566H351.307H351.047H350.788H350.528H350.269H350.009H349.75H349.491H349.231H348.972H348.713H348.453H348.194H347.935H347.675H347.416H347.157H346.897H346.638H346.379H346.12H345.86H345.601H345.342H345.083H344.823H344.564H344.305H344.046H343.787H343.527H343.268H343.009H342.75H342.49H342.231H341.972H341.713H341.453H341.194H340.935H340.675H340.416H340.157H339.897H339.638H339.379H339.119H338.86H338.6H338.341H338.082H337.822H337.563H337.303H337.043H336.784H336.524H336.265H336.005H335.745H335.486H335.226H334.966H334.706H334.446H334.187H333.927H333.667H333.407H333.147H332.887H332.627H332.367H332.106H331.846H331.586H331.326H331.066H330.805H330.545H330.284H330.024H329.763H329.503H329.242H328.981H328.721H328.46H328.199H327.938H327.677H327.416H327.155H326.894H326.633H326.372H326.11H325.849H325.588H325.326H325.065H324.803H324.542H324.28H324.018H323.756H323.494H323.232H322.97H322.708H322.446H322.184H321.922H321.659H321.397H321.134H320.872H320.609H320.346H320.083H319.82H319.557H319.294H319.031H318.768H318.505H318.241H317.978H317.714H317.451H317.187H316.923H316.659H316.395H316.131H315.867H315.603H315.338H315.074H314.809H314.544H314.28H314.015H313.75H313.485H313.22H312.955H312.689H312.424H312.158H311.893H311.627H311.361H311.095H310.829H310.563H310.296H310.03H309.764H309.497H309.23H308.963H308.696H308.429H308.162H307.895H307.627H307.36H307.092H306.825H306.557H306.289H306.021H305.752H305.484H305.215H304.947H304.678H304.409H304.14H303.871H303.602H303.332H303.063H302.793H302.523H302.253H301.983H301.713H301.443H301.172H300.902H300.631H300.36H300.089H299.818H299.547H299.275H299.004H298.732H298.46H298.188H297.916H297.644H297.371H297.099H296.826H296.553H296.28H296.007H295.733H295.46H295.186H294.912H294.638H294.364H294.09H293.815H293.541H293.266H292.991H292.716H292.441H292.165H291.889H291.614H291.338H291.062H290.785H290.509H290.232H289.956H289.679H289.401H289.124H288.847H288.569H288.291H288.013H287.735H287.457H287.178H286.899H286.62H286.341H286.062H285.783H285.503H285.223H284.943H284.663H284.383H284.102H283.821H283.54H283.259H282.978H282.696H282.415H282.133H281.851H281.568H281.286H281.003H280.72H280.437H280.154H279.87H279.587H279.303H279.019H278.734H278.45H278.165H277.88H277.595H277.31H277.024H276.738H276.452H276.166H275.88H275.593H275.306H275.019H274.732H274.445H274.157H273.869H273.581H273.292H273.004H272.715H272.426H272.137H271.847H271.558H271.268H270.978H270.687H270.397H270.106H269.815H269.523H269.232H268.94H268.648H268.356H268.063H267.771H267.478H267.185H266.891H266.598H266.304H266.009H265.715H265.42H265.126H264.831H264.535H264.24H263.944H263.648H263.351H263.055H262.758H262.461H262.163H261.866H261.568H261.27H260.971H260.673H260.374H260.075H259.775H259.476H259.176H258.876H258.575H258.275H257.974H257.672H257.371H257.069H256.767H256.465H256.162H255.859H255.556H255.253H254.949H254.645H254.341H254.037H253.732H253.427H253.122C238.381 274.075 226.42 262.125 226.42 247.385V144.586Z" stroke="#979797" stroke-width="0.898396"/>
</g>
<path d="M216.442 126.414C216.442 109.731 229.967 96.2067 246.65 96.2067H440.792C457.476 96.2067 471 109.731 471 126.414V240.408C471 257.091 457.475 270.616 440.792 270.616C436.763 270.616 432.802 270.616 428.9 270.616C423.064 270.616 422.256 296.682 416.662 296.682C410.843 296.682 400.246 270.616 394.633 270.616C344.92 270.616 302.177 270.616 246.66 270.616C229.977 270.616 216.442 257.091 216.442 240.408V126.414Z" fill="url(#paint1_linear_700_172)"/>
<g filter="url(#filter1_f_700_172)">
<rect x="216.442" y="139.697" width="155.185" height="115.975" rx="20" fill="#4000FF" fill-opacity="0.4"/>
</g>
<g filter="url(#filter2_bi_700_172)">
<path d="M353.931 42C353.931 18.804 335.127 0 311.931 0H42C18.8041 0 3.05176e-05 18.804 3.05176e-05 42V200.494C3.05176e-05 223.69 18.8049 242.494 42.0008 242.494C47.6021 242.494 53.11 242.494 58.5347 242.494C66.6496 242.494 67.7723 278.736 75.5506 278.736C83.6412 278.736 98.3752 242.494 106.179 242.494C175.299 242.494 234.728 242.494 311.917 242.494C335.113 242.494 353.931 223.69 353.931 200.494V42Z" fill="url(#paint2_linear_700_172)" fill-opacity="0.3"/>
</g>
<ellipse cx="127.279" cy="124.542" rx="15.6546" ry="15.1558" fill="white"/>
<ellipse cx="177.646" cy="124.542" rx="15.6546" ry="15.1558" fill="white"/>
<ellipse cx="228.013" cy="124.542" rx="15.6546" ry="15.1558" fill="white"/>
<defs>
<filter id="filter0_f_700_172" x="185.971" y="77.4477" width="316.861" height="260.552" filterUnits="userSpaceOnUse" color-interpolation-filters="sRGB">
<feFlood flood-opacity="0" result="BackgroundImageFix"/>
<feBlend mode="normal" in="SourceGraphic" in2="BackgroundImageFix" result="shape"/>
<feGaussianBlur stdDeviation="20" result="effect1_foregroundBlur_700_172"/>
</filter>
<filter id="filter1_f_700_172" x="186.442" y="109.697" width="215.185" height="175.975" filterUnits="userSpaceOnUse" color-interpolation-filters="sRGB">
<feFlood flood-opacity="0" result="BackgroundImageFix"/>
<feBlend mode="normal" in="SourceGraphic" in2="BackgroundImageFix" result="shape"/>
<feGaussianBlur stdDeviation="15" result="effect1_foregroundBlur_700_172"/>
</filter>
<filter id="filter2_bi_700_172" x="-25" y="-25" width="403.931" height="328.736" filterUnits="userSpaceOnUse" color-interpolation-filters="sRGB">
<feFlood flood-opacity="0" result="BackgroundImageFix"/>
<feGaussianBlur in="BackgroundImageFix" stdDeviation="12.5"/>
<feComposite in2="SourceAlpha" operator="in" result="effect1_backgroundBlur_700_172"/>
<feBlend mode="normal" in="SourceGraphic" in2="effect1_backgroundBlur_700_172" result="shape"/>
<feColorMatrix in="SourceAlpha" type="matrix" values="0 0 0 0 0 0 0 0 0 0 0 0 0 0 0 0 0 0 127 0" result="hardAlpha"/>
<feOffset dy="4"/>
<feGaussianBlur stdDeviation="20"/>
<feComposite in2="hardAlpha" operator="arithmetic" k2="-1" k3="1"/>
<feColorMatrix type="matrix" values="0 0 0 0 1 0 0 0 0 1 0 0 0 0 1 0 0 0 0.35 0"/>
<feBlend mode="normal" in2="shape" result="effect2_innerShadow_700_172"/>
</filter>
<linearGradient id="paint0_linear_700_172" x1="225.971" y1="102.611" x2="357.612" y2="420.511" gradientUnits="userSpaceOnUse">
<stop stop-color="#AB6BFF"/>
<stop offset="1" stop-color="#5E5EFF"/>
</linearGradient>
<linearGradient id="paint1_linear_700_172" x1="258.642" y1="78.415" x2="420.952" y2="312.05" gradientUnits="userSpaceOnUse">
<stop offset="0.283719" stop-color="#6B9AFF"/>
<stop offset="1" stop-color="#5E5EFF"/>
</linearGradient>
<linearGradient id="paint2_linear_700_172" x1="7.48702" y1="-2.37413e-06" x2="267.597" y2="249.577" gradientUnits="userSpaceOnUse">
<stop stop-color="#3636FF" stop-opacity="0.1"/>
<stop offset="0.515821" stop-color="#3636FF" stop-opacity="0.8"/>
<stop offset="0.779545" stop-color="#365BFF"/>
<stop offset="0.988497" stop-color="#3636FF"/>
</linearGradient>
</defs>
</svg>
