<svg width="620" height="406" viewBox="0 0 620 406" fill="none" xmlns="http://www.w3.org/2000/svg">
<g opacity="0.4" filter="url(#filter0_f_791_224)">
<path d="M283.063 171.386C283.063 156.398 295.214 144.248 310.202 144.248H552.63C567.618 144.248 579.769 156.398 579.769 171.386V310.029C579.769 325.017 567.618 337.167 552.63 337.167C545.126 337.167 537.826 337.167 530.698 337.167C523.895 337.167 522.954 366 516.434 366C509.651 366 497.299 337.167 490.757 337.167C430.428 337.167 378.905 337.167 310.217 337.167C295.229 337.167 283.063 325.017 283.063 310.029V171.386Z" fill="url(#paint0_linear_791_224)"/>
<path d="M283.513 171.386C283.513 156.646 295.462 144.697 310.202 144.697H552.63C567.37 144.697 579.319 156.646 579.319 171.386V310.029C579.319 324.769 567.37 336.718 552.63 336.718H552.586H552.542H552.498H552.454H552.41H552.366H552.322H552.278H552.234H552.19H552.146H552.102H552.059H552.015H551.971H551.927H551.883H551.839H551.795H551.751H551.707H551.664H551.62H551.576H551.532H551.488H551.444H551.4H551.357H551.313H551.269H551.225H551.181H551.137H551.094H551.05H551.006H550.962H550.918H550.875H550.831H550.787H550.743H550.7H550.656H550.612H550.568H550.525H550.481H550.437H550.393H550.35H550.306H550.262H550.218H550.175H550.131H550.087H550.044H550H549.956H549.913H549.869H549.825H549.782H549.738H549.694H549.651H549.607H549.563H549.52H549.476H549.432H549.389H549.345H549.301H549.258H549.214H549.171H549.127H549.083H549.04H548.996H548.953H548.909H548.866H548.822H548.778H548.735H548.691H548.648H548.604H548.561H548.517H548.474H548.43H548.387H548.343H548.299H548.256H548.212H548.169H548.125H548.082H548.039H547.995H547.952H547.908H547.865H547.821H547.778H547.734H547.691H547.647H547.604H547.56H547.517H547.474H547.43H547.387H547.343H547.3H547.257H547.213H547.17H547.126H547.083H547.04H546.996H546.953H546.909H546.866H546.823H546.779H546.736H546.693H546.649H546.606H546.563H546.519H546.476H546.433H546.389H546.346H546.303H546.259H546.216H546.173H546.13H546.086H546.043H546H545.956H545.913H545.87H545.827H545.783H545.74H545.697H545.654H545.61H545.567H545.524H545.481H545.437H545.394H545.351H545.308H545.265H545.221H545.178H545.135H545.092H545.049H545.006H544.962H544.919H544.876H544.833H544.79H544.747H544.703H544.66H544.617H544.574H544.531H544.488H544.445H544.402H544.358H544.315H544.272H544.229H544.186H544.143H544.1H544.057H544.014H543.971H543.928H543.885H543.841H543.798H543.755H543.712H543.669H543.626H543.583H543.54H543.497H543.454H543.411H543.368H543.325H543.282H543.239H543.196H543.153H543.11H543.067H543.024H542.981H542.938H542.895H542.852H542.809H542.767H542.724H542.681H542.638H542.595H542.552H542.509H542.466H542.423H542.38H542.337H542.294H542.252H542.209H542.166H542.123H542.08H542.037H541.994H541.951H541.909H541.866H541.823H541.78H541.737H541.694H541.651H541.609H541.566H541.523H541.48H541.437H541.395H541.352H541.309H541.266H541.223H541.181H541.138H541.095H541.052H541.009H540.967H540.924H540.881H540.838H540.796H540.753H540.71H540.667H540.625H540.582H540.539H540.497H540.454H540.411H540.368H540.326H540.283H540.24H540.198H540.155H540.112H540.07H540.027H539.984H539.942H539.899H539.856H539.814H539.771H539.728H539.686H539.643H539.6H539.558H539.515H539.473H539.43H539.387H539.345H539.302H539.26H539.217H539.174H539.132H539.089H539.047H539.004H538.962H538.919H538.876H538.834H538.791H538.749H538.706H538.664H538.621H538.579H538.536H538.494H538.451H538.409H538.366H538.324H538.281H538.239H538.196H538.154H538.111H538.069H538.026H537.984H537.941H537.899H537.856H537.814H537.771H537.729H537.687H537.644H537.602H537.559H537.517H537.474H537.432H537.39H537.347H537.305H537.262H537.22H537.178H537.135H537.093H537.05H537.008H536.966H536.923H536.881H536.839H536.796H536.754H536.712H536.669H536.627H536.585H536.542H536.5H536.458H536.415H536.373H536.331H536.288H536.246H536.204H536.162H536.119H536.077H536.035H535.992H535.95H535.908H535.866H535.823H535.781H535.739H535.697H535.654H535.612H535.57H535.528H535.485H535.443H535.401H535.359H535.317H535.274H535.232H535.19H535.148H535.106H535.063H535.021H534.979H534.937H534.895H534.853H534.81H534.768H534.726H534.684H534.642H534.6H534.558H534.515H534.473H534.431H534.389H534.347H534.305H534.263H534.221H534.178H534.136H534.094H534.052H534.01H533.968H533.926H533.884H533.842H533.8H533.758H533.716H533.674H533.632H533.59H533.547H533.505H533.463H533.421H533.379H533.337H533.295H533.253H533.211H533.169H533.127H533.085H533.043H533.001H532.959H532.917H532.875H532.833H532.791H532.749H532.708H532.666H532.624H532.582H532.54H532.498H532.456H532.414H532.372H532.33H532.288H532.246H532.204H532.162H532.121H532.079H532.037H531.995H531.953H531.911H531.869H531.827H531.785H531.744H531.702H531.66H531.618H531.576H531.534H531.492H531.451H531.409H531.367H531.325H531.283H531.242H531.2H531.158H531.116H531.074H531.032H530.991H530.949H530.907H530.865H530.824H530.782H530.74H530.698C529.671 336.718 528.799 337.267 528.061 338.11C527.326 338.951 526.684 340.128 526.103 341.497C524.941 344.236 523.974 347.874 523.026 351.469L522.971 351.677C522.037 355.221 521.118 358.706 520.041 361.324C519.492 362.659 518.915 363.736 518.296 364.472C517.678 365.207 517.064 365.551 516.434 365.551C515.737 365.551 514.902 365.175 513.929 364.408C512.967 363.649 511.926 362.551 510.828 361.21C508.631 358.529 506.261 354.946 503.88 351.336L503.744 351.13C501.417 347.6 499.083 344.061 496.925 341.39C495.824 340.028 494.756 338.874 493.743 338.056C492.741 337.248 491.731 336.718 490.757 336.718H490.404H490.051H489.698H489.345H488.992H488.64H488.288H487.936H487.584H487.232H486.881H486.529H486.178H485.827H485.477H485.126H484.776H484.426H484.076H483.726H483.376H483.027H482.678H482.329H481.98H481.631H481.283H480.934H480.586H480.238H479.89H479.542H479.195H478.847H478.5H478.153H477.806H477.459H477.113H476.766H476.42H476.074H475.728H475.382H475.037H474.691H474.346H474H473.655H473.31H472.966H472.621H472.276H471.932H471.588H471.244H470.9H470.556H470.212H469.869H469.525H469.182H468.839H468.496H468.153H467.81H467.468H467.125H466.783H466.44H466.098H465.756H465.414H465.072H464.731H464.389H464.048H463.706H463.365H463.024H462.683H462.342H462.001H461.66H461.32H460.979H460.639H460.299H459.958H459.618H459.278H458.938H458.599H458.259H457.919H457.58H457.24H456.901H456.562H456.222H455.883H455.544H455.205H454.867H454.528H454.189H453.851H453.512H453.174H452.835H452.497H452.159H451.82H451.482H451.144H450.806H450.468H450.131H449.793H449.455H449.118H448.78H448.443H448.105H447.768H447.43H447.093H446.756H446.419H446.082H445.744H445.407H445.07H444.734H444.397H444.06H443.723H443.386H443.05H442.713H442.376H442.04H441.703H441.367H441.03H440.694H440.357H440.021H439.684H439.348H439.012H438.676H438.339H438.003H437.667H437.331H436.995H436.658H436.322H435.986H435.65H435.314H434.978H434.642H434.306H433.97H433.634H433.298H432.962H432.626H432.29H431.954H431.618H431.282H430.946H430.61H430.274H429.938H429.602H429.266H428.93H428.594H428.258H427.922H427.585H427.249H426.913H426.577H426.241H425.905H425.569H425.233H424.896H424.56H424.224H423.888H423.551H423.215H422.879H422.542H422.206H421.869H421.533H421.196H420.86H420.523H420.187H419.85H419.513H419.177H418.84H418.503H418.166H417.829H417.492H417.155H416.818H416.481H416.144H415.807H415.469H415.132H414.795H414.457H414.12H413.782H413.445H413.107H412.769H412.431H412.093H411.755H411.417H411.079H410.741H410.403H410.065H409.726H409.388H409.049H408.711H408.372H408.033H407.695H407.356H407.017H406.678H406.338H405.999H405.66H405.32H404.981H404.641H404.302H403.962H403.622H403.282H402.942H402.602H402.261H401.921H401.581H401.24H400.899H400.558H400.218H399.877H399.535H399.194H398.853H398.511H398.17H397.828H397.486H397.145H396.803H396.46H396.118H395.776H395.433H395.091H394.748H394.405H394.062H393.719H393.376H393.032H392.689H392.345H392.001H391.657H391.313H390.969H390.625H390.28H389.936H389.591H389.246H388.901H388.556H388.21H387.865H387.519H387.173H386.827H386.481H386.135H385.789H385.442H385.095H384.749H384.402H384.054H383.707H383.359H383.012H382.664H382.316H381.968H381.619H381.271H380.922H380.573H380.224H379.875H379.526H379.176H378.826H378.476H378.126H377.776H377.426H377.075H376.724H376.373H376.022H375.67H375.319H374.967H374.615H374.263H373.911H373.558H373.205H372.852H372.499H372.146H371.792H371.439H371.085H370.73H370.376H370.021H369.667H369.312H368.956H368.601H368.245H367.89H367.534H367.177H366.821H366.464H366.107H365.75H365.393H365.035H364.677H364.319H363.961H363.602H363.244H362.885H362.526H362.166H361.806H361.447H361.086H360.726H360.365H360.005H359.643H359.282H358.921H358.559H358.197H357.834H357.472H357.109H356.746H356.383H356.019H355.655H355.291H354.927H354.562H354.198H353.832H353.467H353.101H352.736H352.369H352.003H351.636H351.269H350.902H350.535H350.167H349.799H349.431H349.062H348.693H348.324H347.955H347.585H347.215H346.845H346.474H346.103H345.732H345.361H344.989H344.617H344.245H343.873H343.5H343.127H342.753H342.379H342.005H341.631H341.257H340.882H340.506H340.131H339.755H339.379H339.003H338.626H338.249H337.871H337.494H337.116H336.738H336.359H335.98H335.601H335.221H334.841H334.461H334.081H333.7H333.319H332.937H332.556H332.173H331.791H331.408H331.025H330.642H330.258H329.874H329.489H329.104H328.719H328.334H327.948H327.562H327.175H326.789H326.401H326.014H325.626H325.238H324.849H324.46H324.071H323.682H323.292H322.901H322.511H322.12H321.728H321.337H320.944H320.552H320.159H319.766H319.372H318.978H318.584H318.189H317.794H317.399H317.003H316.607H316.211H315.814H315.416H315.019H314.621H314.222H313.824H313.424H313.025H312.625H312.225H311.824H311.423H311.021H310.619H310.217C295.477 336.718 283.513 324.768 283.513 310.029V171.386Z" stroke="#979797" stroke-width="0.898396"/>
</g>
<path d="M271.127 148.368C271.127 131.684 284.652 118.16 301.335 118.16H559.793C576.476 118.16 590 131.684 590 148.368V302.159C590 318.842 576.475 332.367 559.792 332.367C552.093 332.367 544.594 332.367 537.264 332.367C529.953 332.367 528.941 364.381 521.933 364.381C514.644 364.381 501.369 332.367 494.338 332.367C429.807 332.367 374.65 332.367 301.348 332.367C284.665 332.367 271.127 318.842 271.127 302.159V148.368Z" fill="url(#paint1_linear_791_224)"/>
<g filter="url(#filter1_f_791_224)">
<rect x="271.127" y="171.575" width="194.393" height="142.439" rx="20" fill="#030530" fill-opacity="0.4"/>
</g>
<g filter="url(#filter2_bi_791_224)">
<path d="M443.353 41.9999C443.353 18.804 424.548 0 401.353 0H41.9999C18.804 0 -6.10352e-05 18.804 -6.10352e-05 42V255.828C-6.10352e-05 279.024 18.8045 297.828 42.0004 297.828C52.705 297.828 63.1313 297.828 73.3236 297.828C83.4887 297.828 84.8951 342.34 94.6387 342.34C104.773 342.34 123.23 297.828 133.006 297.828C222.729 297.828 299.418 297.828 401.335 297.828C424.531 297.828 443.353 279.024 443.353 255.828V41.9999Z" fill="url(#paint2_linear_791_224)" fill-opacity="0.3"/>
</g>
<ellipse cx="159.436" cy="152.96" rx="19.6098" ry="18.6142" fill="white"/>
<ellipse cx="222.529" cy="152.96" rx="19.6098" ry="18.6142" fill="white"/>
<ellipse cx="285.622" cy="152.96" rx="19.6098" ry="18.6142" fill="white"/>
<defs>
<filter id="filter0_f_791_224" x="243.063" y="104.248" width="376.705" height="301.752" filterUnits="userSpaceOnUse" color-interpolation-filters="sRGB">
<feFlood flood-opacity="0" result="BackgroundImageFix"/>
<feBlend mode="normal" in="SourceGraphic" in2="BackgroundImageFix" result="shape"/>
<feGaussianBlur stdDeviation="20" result="effect1_foregroundBlur_791_224"/>
</filter>
<filter id="filter1_f_791_224" x="241.127" y="141.575" width="254.393" height="202.439" filterUnits="userSpaceOnUse" color-interpolation-filters="sRGB">
<feFlood flood-opacity="0" result="BackgroundImageFix"/>
<feBlend mode="normal" in="SourceGraphic" in2="BackgroundImageFix" result="shape"/>
<feGaussianBlur stdDeviation="15" result="effect1_foregroundBlur_791_224"/>
</filter>
<filter id="filter2_bi_791_224" x="-25" y="-25" width="493.353" height="392.34" filterUnits="userSpaceOnUse" color-interpolation-filters="sRGB">
<feFlood flood-opacity="0" result="BackgroundImageFix"/>
<feGaussianBlur in="BackgroundImageFix" stdDeviation="12.5"/>
<feComposite in2="SourceAlpha" operator="in" result="effect1_backgroundBlur_791_224"/>
<feBlend mode="normal" in="SourceGraphic" in2="effect1_backgroundBlur_791_224" result="shape"/>
<feColorMatrix in="SourceAlpha" type="matrix" values="0 0 0 0 0 0 0 0 0 0 0 0 0 0 0 0 0 0 127 0" result="hardAlpha"/>
<feOffset dy="4"/>
<feGaussianBlur stdDeviation="20"/>
<feComposite in2="hardAlpha" operator="arithmetic" k2="-1" k3="1"/>
<feColorMatrix type="matrix" values="0 0 0 0 1 0 0 0 0 1 0 0 0 0 1 0 0 0 0.35 0"/>
<feBlend mode="normal" in2="shape" result="effect2_innerShadow_791_224"/>
</filter>
<linearGradient id="paint0_linear_791_224" x1="283.063" y1="126.026" x2="442.488" y2="518.69" gradientUnits="userSpaceOnUse">
<stop stop-color="#9B49FF"/>
<stop offset="1" stop-color="#413865"/>
</linearGradient>
<linearGradient id="paint1_linear_791_224" x1="323.989" y1="96.3084" x2="521.935" y2="386.916" gradientUnits="userSpaceOnUse">
<stop offset="0.283719" stop-color="#4752ED"/>
<stop offset="0.64186" stop-color="#2F3495"/>
<stop offset="1" stop-color="#16163C"/>
</linearGradient>
<linearGradient id="paint2_linear_791_224" x1="9.37855" y1="-2.91587e-06" x2="329.041" y2="312.827" gradientUnits="userSpaceOnUse">
<stop stop-color="#3636FF" stop-opacity="0.1"/>
<stop offset="0.515821" stop-color="#3636FF" stop-opacity="0.8"/>
<stop offset="0.779545" stop-color="#365BFF"/>
<stop offset="0.988497" stop-color="#3636FF"/>
</linearGradient>
</defs>
</svg>
