<svg width="139" height="21" viewBox="0 0 139 21" fill="none" xmlns="http://www.w3.org/2000/svg">
<path d="M0.607777 1.45455H3.27113L7.90181 12.7614H8.07227L12.7029 1.45455H15.3663V16H13.2782V5.47443H13.1433L8.85352 15.9787H7.12056L2.83079 5.46733H2.69585V16H0.607777V1.45455ZM18.557 16V1.45455H27.5769V3.34375H20.7516V7.77557H26.9306V9.65767H20.7516V16H18.557ZM40.2775 16H35.5687V1.45455H40.4267C41.8519 1.45455 43.0758 1.74574 44.0985 2.32812C45.1213 2.90578 45.9049 3.73674 46.4494 4.82102C46.9986 5.90057 47.2733 7.19555 47.2733 8.70597C47.2733 10.2211 46.9963 11.5232 46.4423 12.6122C45.8931 13.7012 45.0976 14.5393 44.0559 15.1264C43.0143 15.7088 41.7548 16 40.2775 16ZM37.7633 14.0824H40.1568C41.2647 14.0824 42.1857 13.8741 42.9196 13.4574C43.6535 13.036 44.2027 12.4276 44.5673 11.6321C44.9319 10.8319 45.1142 9.85653 45.1142 8.70597C45.1142 7.56487 44.9319 6.59659 44.5673 5.80114C44.2074 5.00568 43.67 4.40199 42.9551 3.99006C42.2401 3.57812 41.3523 3.37216 40.2917 3.37216H37.7633V14.0824ZM49.8319 16V5.09091H51.9554V16H49.8319ZM50.9043 3.40767C50.535 3.40767 50.2177 3.28456 49.9526 3.03835C49.6922 2.7874 49.562 2.48911 49.562 2.14347C49.562 1.79309 49.6922 1.49479 49.9526 1.24858C50.2177 0.997632 50.535 0.872159 50.9043 0.872159C51.2736 0.872159 51.5885 0.997632 51.8489 1.24858C52.1141 1.49479 52.2466 1.79309 52.2466 2.14347C52.2466 2.48911 52.1141 2.7874 51.8489 3.03835C51.5885 3.28456 51.2736 3.40767 50.9043 3.40767ZM59.3862 20.3182C58.5197 20.3182 57.774 20.2045 57.149 19.9773C56.5287 19.75 56.0221 19.4493 55.6291 19.0753C55.2361 18.7012 54.9425 18.2917 54.7484 17.8466L56.5737 17.0938C56.7015 17.3021 56.872 17.5223 57.085 17.7543C57.3029 17.991 57.5964 18.1922 57.9657 18.358C58.3398 18.5237 58.8204 18.6065 59.4075 18.6065C60.2124 18.6065 60.8777 18.41 61.4032 18.017C61.9288 17.6288 62.1916 17.0085 62.1916 16.1562V14.0114H62.0566C61.9288 14.2434 61.7441 14.5014 61.5027 14.7855C61.2659 15.0696 60.9392 15.3158 60.5225 15.5241C60.1059 15.7325 59.5637 15.8366 58.8961 15.8366C58.0344 15.8366 57.2579 15.6354 56.5666 15.233C55.88 14.8258 55.3355 14.2268 54.9331 13.4361C54.5353 12.6406 54.3365 11.6629 54.3365 10.5028C54.3365 9.3428 54.533 8.34848 54.926 7.51989C55.3237 6.69129 55.8682 6.05682 56.5595 5.61648C57.2508 5.1714 58.0344 4.94886 58.9103 4.94886C59.5874 4.94886 60.1343 5.0625 60.551 5.28977C60.9676 5.51231 61.292 5.77273 61.524 6.07102C61.7607 6.36932 61.943 6.6321 62.0708 6.85938H62.2271V5.09091H64.3081V16.2415C64.3081 17.179 64.0903 17.9484 63.6547 18.5497C63.219 19.151 62.6296 19.5961 61.8862 19.8849C61.1475 20.1738 60.3142 20.3182 59.3862 20.3182ZM59.3649 14.0753C59.9757 14.0753 60.4918 13.9332 60.9132 13.6491C61.3393 13.3603 61.6613 12.9484 61.8791 12.4134C62.1016 11.8736 62.2129 11.2273 62.2129 10.4744C62.2129 9.74053 62.104 9.09422 61.8862 8.53551C61.6684 7.9768 61.3488 7.54119 60.9274 7.22869C60.506 6.91146 59.9851 6.75284 59.3649 6.75284C58.7257 6.75284 58.193 6.91856 57.7669 7.25C57.3407 7.5767 57.0188 8.02178 56.801 8.58523C56.5879 9.14867 56.4814 9.77841 56.4814 10.4744C56.4814 11.1894 56.5903 11.8168 56.8081 12.3565C57.0259 12.8963 57.3478 13.3177 57.774 13.6207C58.2048 13.9238 58.7351 14.0753 59.3649 14.0753ZM67.1561 16V5.09091H69.2797V16H67.1561ZM68.2285 3.40767C67.8592 3.40767 67.542 3.28456 67.2768 3.03835C67.0164 2.7874 66.8862 2.48911 66.8862 2.14347C66.8862 1.79309 67.0164 1.49479 67.2768 1.24858C67.542 0.997632 67.8592 0.872159 68.2285 0.872159C68.5978 0.872159 68.9127 0.997632 69.1731 1.24858C69.4383 1.49479 69.5708 1.79309 69.5708 2.14347C69.5708 2.48911 69.4383 2.7874 69.1731 3.03835C68.9127 3.28456 68.5978 3.40767 68.2285 3.40767ZM77.2289 5.09091V6.79545H71.2701V5.09091H77.2289ZM72.8681 2.47727H74.9917V12.7969C74.9917 13.2088 75.0532 13.5189 75.1763 13.7273C75.2994 13.9309 75.458 14.0705 75.6522 14.1463C75.851 14.2173 76.0665 14.2528 76.2985 14.2528C76.4689 14.2528 76.6181 14.241 76.7459 14.2173C76.8738 14.1937 76.9732 14.1747 77.0442 14.1605L77.4277 15.9148C77.3046 15.9621 77.1294 16.0095 76.9022 16.0568C76.6749 16.1089 76.3908 16.1373 76.0499 16.142C75.4912 16.1515 74.9703 16.0521 74.4874 15.8438C74.0044 15.6354 73.6138 15.3134 73.3155 14.8778C73.0172 14.4422 72.8681 13.8954 72.8681 13.2372V2.47727ZM82.7527 16.2415C82.0614 16.2415 81.4364 16.1136 80.8777 15.858C80.319 15.5975 79.8762 15.2211 79.5495 14.7287C79.2276 14.2363 79.0666 13.6326 79.0666 12.9176C79.0666 12.3021 79.185 11.7955 79.4217 11.3977C79.6584 11 79.978 10.6851 80.3805 10.4531C80.783 10.2211 81.2328 10.0459 81.7299 9.92756C82.2271 9.80919 82.7337 9.71922 83.2498 9.65767C83.9032 9.58191 84.4335 9.52036 84.8407 9.47301C85.2479 9.42093 85.5439 9.33807 85.7285 9.22443C85.9132 9.1108 86.0055 8.92614 86.0055 8.67045V8.62074C86.0055 8.00047 85.8303 7.51989 85.4799 7.17898C85.1343 6.83807 84.6182 6.66761 83.9316 6.66761C83.2167 6.66761 82.6532 6.82623 82.2413 7.14347C81.8341 7.45597 81.5524 7.80398 81.3961 8.1875L79.4004 7.73295C79.6371 7.07008 79.9828 6.53504 80.4373 6.12784C80.8966 5.71591 81.4245 5.41761 82.0211 5.23295C82.6177 5.04356 83.2451 4.94886 83.9032 4.94886C84.3388 4.94886 84.8005 5.00095 85.2882 5.10511C85.7806 5.20455 86.2399 5.3892 86.666 5.65909C87.0969 5.92898 87.4496 6.31487 87.7243 6.81676C87.9989 7.31392 88.1362 7.96023 88.1362 8.75568V16H86.0623V14.5085H85.9771C85.8398 14.7831 85.6338 15.053 85.3592 15.3182C85.0846 15.5833 84.7318 15.8035 84.301 15.9787C83.8701 16.1539 83.354 16.2415 82.7527 16.2415ZM83.2143 14.5369C83.8014 14.5369 84.3033 14.4209 84.72 14.1889C85.1414 13.9569 85.461 13.6539 85.6788 13.2798C85.9013 12.901 86.0126 12.4962 86.0126 12.0653V10.6591C85.9368 10.7348 85.7901 10.8059 85.5723 10.8722C85.3592 10.9337 85.1154 10.9882 84.8407 11.0355C84.5661 11.0781 84.2986 11.1184 84.0382 11.1562C83.7778 11.1894 83.56 11.2178 83.3848 11.2415C82.9728 11.2936 82.5964 11.3812 82.2555 11.5043C81.9193 11.6274 81.6494 11.8049 81.4458 12.0369C81.247 12.2642 81.1475 12.5672 81.1475 12.946C81.1475 13.4716 81.3417 13.8693 81.7299 14.1392C82.1182 14.4044 82.613 14.5369 83.2143 14.5369ZM93.0882 1.45455V16H90.9647V1.45455H93.0882ZM101.409 16V1.45455H103.603V14.1108H110.194V16H101.409ZM115.702 16.2415C115.011 16.2415 114.386 16.1136 113.827 15.858C113.268 15.5975 112.825 15.2211 112.499 14.7287C112.177 14.2363 112.016 13.6326 112.016 12.9176C112.016 12.3021 112.134 11.7955 112.371 11.3977C112.608 11 112.927 10.6851 113.33 10.4531C113.732 10.2211 114.182 10.0459 114.679 9.92756C115.176 9.80919 115.683 9.71922 116.199 9.65767C116.852 9.58191 117.383 9.52036 117.79 9.47301C118.197 9.42093 118.493 9.33807 118.678 9.22443C118.862 9.1108 118.955 8.92614 118.955 8.67045V8.62074C118.955 8.00047 118.78 7.51989 118.429 7.17898C118.084 6.83807 117.567 6.66761 116.881 6.66761C116.166 6.66761 115.602 6.82623 115.191 7.14347C114.783 7.45597 114.502 7.80398 114.345 8.1875L112.35 7.73295C112.586 7.07008 112.932 6.53504 113.387 6.12784C113.846 5.71591 114.374 5.41761 114.97 5.23295C115.567 5.04356 116.194 4.94886 116.852 4.94886C117.288 4.94886 117.75 5.00095 118.237 5.10511C118.73 5.20455 119.189 5.3892 119.615 5.65909C120.046 5.92898 120.399 6.31487 120.673 6.81676C120.948 7.31392 121.085 7.96023 121.085 8.75568V16H119.012V14.5085H118.926C118.789 14.7831 118.583 15.053 118.308 15.3182C118.034 15.5833 117.681 15.8035 117.25 15.9787C116.819 16.1539 116.303 16.2415 115.702 16.2415ZM116.164 14.5369C116.751 14.5369 117.253 14.4209 117.669 14.1889C118.091 13.9569 118.41 13.6539 118.628 13.2798C118.851 12.901 118.962 12.4962 118.962 12.0653V10.6591C118.886 10.7348 118.739 10.8059 118.521 10.8722C118.308 10.9337 118.065 10.9882 117.79 11.0355C117.515 11.0781 117.248 11.1184 116.987 11.1562C116.727 11.1894 116.509 11.2178 116.334 11.2415C115.922 11.2936 115.546 11.3812 115.205 11.5043C114.869 11.6274 114.599 11.8049 114.395 12.0369C114.196 12.2642 114.097 12.5672 114.097 12.946C114.097 13.4716 114.291 13.8693 114.679 14.1392C115.067 14.4044 115.562 14.5369 116.164 14.5369ZM126.279 16L123.069 5.09091H125.263L127.401 13.1023H127.508L129.653 5.09091H131.847L133.978 13.0668H134.084L136.208 5.09091H138.403L135.199 16H133.033L130.817 8.12358H130.654L128.438 16H126.279Z" fill="#184DA7"/>
</svg>
